<svg xmlns="http://www.w3.org/2000/svg" width="100" height="100" viewBox="0 0 100 100" version="1.1">
  <g stroke="none" stroke-width="1" fill="none" fill-rule="evenodd">
    <circle fill="#28334C" cx="50" cy="50" r="50"/>
    <path d="M27.3 51.7C27 52 26.7 52.3 26.4 52.7 25.2 54.4 24.7 56.4 25.2 58.6 25.5 60.9 26.8 62.8 28.6 64.1 30.3 65.5 32 66.1 34 66.1 33.1 66.4 32 66.9 31.1 67.1 28.6 67.5 26.5 67.1 24.4 65.5 22.5 64 21.3 62 21.2 59.5 21 57.1 21.8 54.6 23.5 52.4 24.4 51.3 25.4 50.4 26.5 49.7 25.6 47.1 24.9 44.4 24.4 41.6 25.3 42.8 27.6 44 31.9 45.1 36.7 46.2 42.9 47 50.4 47 57.9 47 64 46.2 68.9 45.1 73 44.2 75.3 43 76.3 41.6 75.4 47 73.7 52.2 71.2 56.6 69.4 59.4 67.5 61.9 65.6 64.5 64.9 66.1 64.4 67.6 64.1 69.2L63.9 69.2C62.7 70.9 61 71.9 59 72.6 56.3 73.5 53.3 74 50.5 73.8L50.2 73.8C47.4 74 44.6 73.6 42 72.6 39.8 72 38 70.9 36.8 69.2 36.5 67.6 35.9 66.1 35.1 64.5 33.3 61.9 31.4 59.4 29.6 56.6 28.7 55.1 27.9 53.4 27.3 51.7ZM43.1 31.5C43.1 31.8 43 32 42.5 32.3 41.8 31.9 40.4 31.7 39.3 31.8 38 31.9 36.9 32.3 37.1 33.2 37.3 34 38.5 34.5 40.7 34.3 45.9 33.9 45.9 30.3 53.6 29.6 59.6 29 63 30.9 63.4 33.2 63.8 34.9 62.3 36.6 58 37 54.1 37.3 51.8 36.3 51.6 35.2 51.5 34.7 51.8 33.9 53.7 33.7 53.9 34.5 55 35.4 57.5 35.2 59.3 35 60.8 34.4 60.6 33.4 60.4 32.3 58.5 31.7 55.5 32 49.3 32.5 47.8 35.9 42.6 36.3 38.9 36.7 35.9 35.3 35.5 33.3 35.3 32.6 35.3 30.8 39.3 30.5 41.3 30.3 42.9 30.7 43.1 31.5ZM50.4 40.8C43.9 40.8 38.1 40.2 34 39.3 29.5 38.2 27.2 37 27.2 35.4 27.2 34.8 27.5 34.2 28.4 33.6 25.6 34.7 24 35.6 24 37 24.2 38.5 26.7 40.1 31.8 41.3 36.6 42.5 42.8 43.1 50.2 43.1 57.8 43.1 63.8 42.5 68.7 41.3 73.8 40.1 76.2 38.5 76.2 37 76.2 35.9 75.1 34.8 73.1 34 73.6 34.3 73.9 34.8 73.9 35.4 73.9 36.9 71.6 38.2 66.9 39.2 62.6 40.2 57.1 40.8 50.4 40.8Z" fill="#FFFFFF"/>
  </g>
</svg>
